<svg xmlns="http://www.w3.org/2000/svg" xmlns:xlink="http://www.w3.org/1999/xlink" width="500" zoomAndPan="magnify" viewBox="0 0 375 374.999991" height="500" preserveAspectRatio="xMidYMid meet" version="1.0"><defs><clipPath id="3ed46c164f"><path d="M 121.875 121 L 253.125 121 L 253.125 254 L 121.875 254 Z M 121.875 121 " clip-rule="nonzero"/></clipPath></defs><g clip-path="url(#3ed46c164f)"><path fill="#2c3147" d="M 239.0625 121.875 L 135.9375 121.875 C 128.171875 121.875 121.875 128.171875 121.875 135.9375 L 121.875 239.0625 C 121.875 246.824219 128.171875 253.125 135.9375 253.125 L 239.0625 253.125 C 246.824219 253.125 253.125 246.824219 253.125 239.0625 L 253.125 135.9375 C 253.125 128.171875 246.824219 121.875 239.0625 121.875 Z M 203.113281 234.285156 C 200.652344 234.726562 199.746094 233.203125 199.746094 231.941406 C 199.746094 230.359375 199.804688 222.273438 199.804688 215.742188 C 199.804688 211.171875 198.28125 208.269531 196.492188 206.746094 C 207.332031 205.546875 218.757812 204.050781 218.757812 185.332031 C 218.757812 180 216.855469 177.332031 213.75 173.90625 C 214.246094 172.644531 215.917969 167.460938 213.25 160.722656 C 209.179688 159.460938 199.863281 165.964844 199.863281 165.964844 C 195.996094 164.882812 191.804688 164.324219 187.675781 164.324219 C 183.542969 164.324219 179.355469 164.882812 175.488281 165.964844 C 175.488281 165.964844 166.171875 159.460938 162.097656 160.722656 C 159.433594 167.429688 161.074219 172.617188 161.601562 173.90625 C 158.496094 177.332031 157.03125 180 157.03125 185.332031 C 157.03125 203.964844 167.957031 205.546875 178.796875 206.746094 C 177.390625 208.007812 176.132812 210.175781 175.691406 213.28125 C 172.910156 214.539062 165.789062 216.707031 161.542969 209.207031 C 158.875 204.578125 154.070312 204.199219 154.070312 204.199219 C 149.324219 204.140625 153.75 207.1875 153.75 207.1875 C 156.914062 208.652344 159.140625 214.277344 159.140625 214.277344 C 161.980469 222.976562 175.574219 220.046875 175.574219 220.046875 C 175.574219 224.121094 175.632812 230.742188 175.632812 231.941406 C 175.632812 233.203125 174.753906 234.726562 172.265625 234.285156 C 152.929688 227.8125 139.394531 209.414062 139.394531 187.910156 C 139.394531 161.015625 159.960938 140.59375 186.855469 140.59375 C 213.75 140.59375 235.546875 161.015625 235.546875 187.910156 C 235.574219 209.414062 222.449219 227.839844 203.113281 234.285156 Z M 174.375 216.386719 C 173.816406 216.503906 173.289062 216.269531 173.230469 215.886719 C 173.171875 215.449219 173.554688 215.066406 174.109375 214.949219 C 174.667969 214.890625 175.195312 215.125 175.253906 215.507812 C 175.339844 215.886719 174.960938 216.269531 174.375 216.386719 Z M 171.589844 216.121094 C 171.589844 216.503906 171.152344 216.824219 170.566406 216.824219 C 169.921875 216.882812 169.480469 216.5625 169.480469 216.121094 C 169.480469 215.742188 169.921875 215.417969 170.507812 215.417969 C 171.0625 215.359375 171.589844 215.683594 171.589844 216.121094 Z M 167.578125 215.800781 C 167.460938 216.179688 166.875 216.355469 166.375 216.179688 C 165.820312 216.0625 165.4375 215.625 165.554688 215.242188 C 165.671875 214.863281 166.257812 214.6875 166.757812 214.804688 C 167.34375 214.980469 167.722656 215.417969 167.578125 215.800781 Z M 163.972656 214.21875 C 163.710938 214.539062 163.152344 214.480469 162.714844 214.042969 C 162.273438 213.660156 162.15625 213.105469 162.449219 212.839844 C 162.714844 212.519531 163.269531 212.578125 163.710938 213.015625 C 164.089844 213.398438 164.238281 213.984375 163.972656 214.21875 Z M 161.308594 211.550781 C 161.042969 211.726562 160.546875 211.550781 160.222656 211.113281 C 159.902344 210.671875 159.902344 210.175781 160.222656 209.96875 C 160.546875 209.707031 161.042969 209.910156 161.308594 210.351562 C 161.628906 210.789062 161.628906 211.316406 161.308594 211.550781 Z M 159.402344 208.710938 C 159.140625 208.972656 158.699219 208.828125 158.378906 208.535156 C 158.054688 208.152344 157.996094 207.714844 158.261719 207.507812 C 158.523438 207.246094 158.964844 207.390625 159.285156 207.683594 C 159.609375 208.066406 159.667969 208.503906 159.402344 208.710938 Z M 157.441406 206.542969 C 157.324219 206.804688 156.941406 206.863281 156.621094 206.660156 C 156.238281 206.484375 156.0625 206.160156 156.179688 205.898438 C 156.296875 205.722656 156.621094 205.632812 157 205.78125 C 157.382812 205.984375 157.558594 206.308594 157.441406 206.542969 Z M 157.441406 206.542969 " fill-opacity="1" fill-rule="nonzero"/></g></svg>